<svg id="Layer_1" data-name="Layer 1" xmlns="http://www.w3.org/2000/svg" viewBox="0 0 392 105"><defs><style>.cls-1{fill:#d80000;}.cls-2{fill:#fff;}</style></defs><title>logo</title><rect class="cls-1" width="392" height="105"/><polygon class="cls-2" points="25.29 84.41 25.29 21.44 72.15 21.44 72.15 33.37 37.83 33.37 37.83 48.62 69.89 48.62 69.89 60.54 37.83 60.54 37.83 84.41 25.29 84.41"/><path class="cls-2" d="M248.48,808.91l-5.86-13.5H216.05l-5.81,13.5H197.17l27.62-63h9.31l27.62,63H248.48Zm-10.67-24.56-8.54-19.65-8.46,19.65h17Z" transform="translate(-111 -724.5)"/><path class="cls-2" d="M306.45,809.61a39.83,39.83,0,0,1-15.81-3.26,31,31,0,0,1-11.78-8.25l-0.54-.65,7.54-8.9,0.77,0.81c5.29,5.57,12.29,8.4,20.79,8.4,3.45,0,6.14-.61,8-1.8a5.38,5.38,0,0,0,.83-8.58,12.4,12.4,0,0,0-5-2.66l-15.3-4.4a36.34,36.34,0,0,1-7.53-3.07,15.94,15.94,0,0,1-5.76-5.43,15.2,15.2,0,0,1-2.25-8.33c0-5.13,2.41-9.52,7.15-13s10.61-5.21,17.71-5.21c10.28,0,18.46,3,24.32,9l0.61,0.62-6.91,9-0.8-.66A26.64,26.64,0,0,0,305,757.08a19.69,19.69,0,0,0-8.62,1.68c-2.08,1-3.1,2.48-3.1,4.46a4.82,4.82,0,0,0,2.34,4.09,18.62,18.62,0,0,0,6.57,2.73c2.79,0.64,5.85,1.44,9.09,2.4s6.34,2,9.17,3.13a17.37,17.37,0,0,1,7.44,5.62,15,15,0,0,1,3,9.38c0,5.59-2.42,10.23-7.2,13.78S313.2,809.61,306.45,809.61Z" transform="translate(-111 -724.5)"/><polygon class="cls-2" points="258.47 84.41 258.47 33.37 238 33.37 238 21.44 291.48 21.44 291.48 33.37 271.01 33.37 271.01 84.41 258.47 84.41"/><path class="cls-2" d="M464.64,808.91L448,786.52H436.62v22.39H424.08v-63h25a39.9,39.9,0,0,1,12.06,1.62,18.25,18.25,0,0,1,7.87,4.58,18,18,0,0,1,3.92,6.32,22.54,22.54,0,0,1,1.19,7.47,18.78,18.78,0,0,1-3.86,11.67A19,19,0,0,1,461.3,784L480,808.91H464.64Zm-15.35-34.32c3.77,0,6.73-.8,8.8-2.37a7.39,7.39,0,0,0,3-6.3,7,7,0,0,0-2.62-5.92c-1.81-1.42-5.08-2.14-9.71-2.14H436.62v16.73h12.67Z" transform="translate(-111 -724.5)"/></svg>